<?xml version="1.0" encoding="UTF-8"?>
<svg width="168px" height="168px" viewBox="0 0 168 168" version="1.1" xmlns="http://www.w3.org/2000/svg" xmlns:xlink="http://www.w3.org/1999/xlink">
    <!-- Generator: Sketch 53.1 (72631) - https://sketchapp.com -->
    <title>DISEÑO UX</title>
    <desc>Created with Sketch.</desc>
    <defs>
        <filter x="-7.5%" y="-7.4%" width="114.9%" height="114.8%" filterUnits="objectBoundingBox" id="filter-1">
            <feOffset dx="0" dy="2" in="SourceAlpha" result="shadowOffsetOuter1"></feOffset>
            <feGaussianBlur stdDeviation="2" in="shadowOffsetOuter1" result="shadowBlurOuter1"></feGaussianBlur>
            <feColorMatrix values="0 0 0 0 0   0 0 0 0 0   0 0 0 0 0  0 0 0 0.1 0" type="matrix" in="shadowBlurOuter1" result="shadowMatrixOuter1"></feColorMatrix>
            <feMerge>
                <feMergeNode in="shadowMatrixOuter1"></feMergeNode>
                <feMergeNode in="SourceGraphic"></feMergeNode>
            </feMerge>
        </filter>
        <polygon id="path-2" points="0.0005 0.725 160.275 0.725 160.275 160.9998 0.0005 160.9998"></polygon>
        <filter x="-15.0%" y="-19.4%" width="130.0%" height="138.7%" filterUnits="objectBoundingBox" id="filter-4">
            <feOffset dx="0" dy="2" in="SourceAlpha" result="shadowOffsetOuter1"></feOffset>
            <feGaussianBlur stdDeviation="2" in="shadowOffsetOuter1" result="shadowBlurOuter1"></feGaussianBlur>
            <feColorMatrix values="0 0 0 0 0   0 0 0 0 0   0 0 0 0 0  0 0 0 0.1 0" type="matrix" in="shadowBlurOuter1" result="shadowMatrixOuter1"></feColorMatrix>
            <feMerge>
                <feMergeNode in="shadowMatrixOuter1"></feMergeNode>
                <feMergeNode in="SourceGraphic"></feMergeNode>
            </feMerge>
        </filter>
    </defs>
    <g id="Page-1" stroke="none" stroke-width="1" fill="none" fill-rule="evenodd">
        <g id="Bluebat-HeroImg" transform="translate(-1286.000000, -2065.000000)">
            <g id="DISEÑO-UX" filter="url(#filter-1)" transform="translate(1290.000000, 2066.000000)">
                <g id="Group-3" transform="translate(0.000000, 0.275000)">
                    <mask id="mask-3" fill="white">
                        <use xlink:href="#path-2"></use>
                    </mask>
                    <g id="Clip-2"></g>
                    <path d="M160.2755,80.8578 C160.2775,125.1168 124.4015,160.9978 80.1425,160.9998 C35.8835,161.0028 0.0035,125.1258 0.0005,80.8668 C-0.0025,36.6078 35.8745,0.7278 80.1325,0.7248 C124.3915,0.7218 160.2725,36.5988 160.2755,80.8578" id="Fill-1" fill="#395DFF" mask="url(#mask-3)"></path>
                </g>
                <path d="M46.9259,57.6929 C47.2289,57.6929 47.5269,57.5699 47.7409,57.3539 C47.9559,57.1399 48.0789,56.8419 48.0789,56.5399 C48.0789,56.2359 47.9559,55.9389 47.7399,55.7239 C47.5269,55.5089 47.2309,55.3869 46.9259,55.3869 C46.6209,55.3869 46.3249,55.5089 46.1109,55.7249 C45.8959,55.9389 45.7739,56.2359 45.7739,56.5399 C45.7739,56.8419 45.8959,57.1409 46.1109,57.3549 C46.3249,57.5699 46.6229,57.6929 46.9259,57.6929" id="Fill-4" fill="#FFFFFF"></path>
                <path d="M50.6163,57.6929 C50.9203,57.6929 51.2183,57.5689 51.4303,57.3539 C51.6453,57.1399 51.7693,56.8419 51.7693,56.5399 C51.7693,56.2359 51.6453,55.9379 51.4303,55.7239 C51.2183,55.5089 50.9183,55.3859 50.6163,55.3859 C50.3123,55.3859 50.0143,55.5089 49.8013,55.7239 C49.5863,55.9389 49.4633,56.2359 49.4633,56.5399 C49.4633,56.8419 49.5863,57.1399 49.8013,57.3539 C50.0143,57.5689 50.3123,57.6929 50.6163,57.6929" id="Fill-6" fill="#FFFFFF"></path>
                <path d="M54.3058,57.6924 C54.6088,57.6924 54.9078,57.5694 55.1198,57.3544 C55.3358,57.1394 55.4588,56.8414 55.4588,56.5394 C55.4588,56.2354 55.3358,55.9384 55.1198,55.7234 C54.9078,55.5084 54.6088,55.3864 54.3058,55.3864 C54.0028,55.3864 53.7038,55.5084 53.4918,55.7244 C53.2758,55.9384 53.1528,56.2354 53.1528,56.5394 C53.1528,56.8414 53.2768,57.1404 53.4918,57.3544 C53.7038,57.5694 54.0028,57.6924 54.3058,57.6924" id="Fill-8" fill="#FFFFFF"></path>
                <path d="M59.2267,57.6924 L105.9657,57.6894 C106.6027,57.6894 107.1197,57.1724 107.1197,56.5364 C107.1197,55.8994 106.6027,55.3834 105.9657,55.3834 L59.2267,55.3854 C58.5887,55.3854 58.0737,55.9014 58.0737,56.5394 C58.0737,57.1754 58.5887,57.6924 59.2267,57.6924" id="Fill-10" fill="#FFFFFF"></path>
                <path d="M110.8859,57.689 L113.3459,57.689 C113.9829,57.689 114.4989,57.172 114.4989,56.536 C114.4989,55.898 113.9829,55.383 113.3459,55.383 L110.8859,55.383 C110.2489,55.383 109.7329,55.898 109.7329,56.536 C109.7329,57.172 110.2489,57.689 110.8859,57.689" id="Fill-12" fill="#FFFFFF"></path>
                <g id="Screen" filter="url(#filter-4)" transform="translate(40.000000, 50.000000)" fill="#FFFFFF">
                    <path d="M69.7335,23.7554 C69.7335,24.4764 69.1475,25.0624 68.4275,25.0624 L46.2875,25.0644 C45.5665,25.0644 44.9805,24.4774 44.9805,23.7564 L44.9805,21.2974 C44.9805,20.5764 45.5665,19.9904 46.2865,19.9904 L68.4265,19.9894 C69.1475,19.9894 69.7335,20.5754 69.7335,21.2954 L69.7335,23.7554 Z M44.9815,34.8274 C44.9815,34.1074 45.5675,33.5204 46.2875,33.5204 L68.4275,33.5194 C69.1475,33.5194 69.7345,34.1054 69.7345,34.8264 L69.7345,37.2864 C69.7345,38.0054 69.1485,38.5924 68.4285,38.5924 L46.2875,38.5934 C45.5675,38.5934 44.9815,38.0074 44.9815,37.2874 L44.9815,34.8274 Z M44.9815,48.3574 C44.9815,47.6364 45.5685,47.0494 46.2885,47.0494 L68.4285,47.0484 C69.1485,47.0484 69.7355,47.6344 69.7355,48.3554 L69.7355,50.8164 C69.7355,51.5364 69.1495,52.1234 68.4285,52.1234 L46.2885,52.1244 C45.5685,52.1244 44.9825,51.5384 44.9825,50.8174 L44.9815,48.3574 Z M32.8345,40.9784 C32.8345,41.6984 32.2485,42.2854 31.5285,42.2854 L11.8475,42.2864 C11.1275,42.2864 10.5415,41.7004 10.5415,40.9794 L10.5405,31.1394 C10.5405,30.4194 11.1265,29.8324 11.8465,29.8324 L31.5275,29.8314 C32.2485,29.8314 32.8345,30.4174 32.8345,31.1384 L32.8345,40.9784 Z M68.4265,17.6834 L46.2865,17.6844 C44.2955,17.6844 42.6735,19.3054 42.6735,21.2974 L42.6735,21.3744 L41.3675,21.3744 C39.3755,21.3744 37.7545,22.9954 37.7545,24.9874 L37.7545,34.9044 L35.1405,34.9044 L35.1395,31.1384 C35.1395,29.1454 33.5195,27.5254 31.5275,27.5254 L11.8465,27.5264 C9.8545,27.5264 8.2335,29.1474 8.2335,31.1394 L8.2345,40.9794 C8.2345,42.9724 9.8555,44.5924 11.8475,44.5924 L31.5285,44.5914 C33.5205,44.5914 35.1405,42.9704 35.1405,40.9784 L35.1405,37.2114 L37.7545,37.2104 L37.7545,47.1284 C37.7545,49.1204 39.3765,50.7414 41.3695,50.7414 L42.6755,50.7404 L42.6755,50.8174 C42.6755,52.8104 44.2965,54.4304 46.2885,54.4304 L68.4285,54.4294 C70.4205,54.4294 72.0415,52.8084 72.0415,50.8154 L72.0415,48.3554 C72.0415,46.3634 70.4205,44.7424 68.4285,44.7424 L46.2885,44.7434 C44.2965,44.7434 42.6755,46.3644 42.6755,48.3574 L42.6755,48.4344 L41.3685,48.4344 C40.6475,48.4344 40.0615,47.8484 40.0615,47.1284 L40.0605,37.2104 L42.6745,37.2104 L42.6745,37.2874 C42.6745,39.2794 44.2965,40.9004 46.2875,40.9004 L68.4285,40.8984 C70.4205,40.8984 72.0415,39.2774 72.0415,37.2864 L72.0405,34.8254 C72.0405,32.8334 70.4205,31.2124 68.4275,31.2134 L46.2875,31.2134 C44.2955,31.2144 42.6745,32.8354 42.6745,34.8274 L42.6745,34.9034 L40.0605,34.9044 L40.0605,24.9874 C40.0605,24.2674 40.6465,23.6804 41.3675,23.6804 L42.6735,23.6804 L42.6735,23.7574 C42.6735,25.7494 44.2955,27.3704 46.2875,27.3704 L68.4275,27.3694 C70.4195,27.3684 72.0405,25.7484 72.0405,23.7554 L72.0405,21.2954 C72.0395,19.3034 70.4195,17.6834 68.4265,17.6834 L68.4265,17.6834 Z" id="Fill-14"></path>
                    <path d="M73.3488,59.5024 L6.9298,59.5064 C4.8518,59.5064 3.1618,57.8164 3.1618,55.7404 L3.1598,12.6124 L77.1138,12.6084 L77.1168,55.7354 C77.1168,57.8124 75.4268,59.5024 73.3488,59.5024 M6.9258,2.7724 L73.3458,2.7684 C75.4228,2.7684 77.1138,4.4584 77.1138,6.5354 L77.1138,10.3014 L3.1598,10.3064 L3.1598,6.5404 C3.1598,4.4624 4.8488,2.7724 6.9258,2.7724 M73.3458,0.4624 L6.9258,0.4664 C3.5778,0.4664 0.8528,3.1904 0.8528,6.5404 L0.8558,55.7404 C0.8558,59.0884 3.5798,61.8124 6.9298,61.8124 L73.3488,61.8084 C76.6988,61.8084 79.4228,59.0844 79.4218,55.7354 L79.4188,6.5354 C79.4188,3.1864 76.6948,0.4614 73.3458,0.4624" id="Fill-16"></path>
                </g>
            </g>
        </g>
    </g>
</svg>