<?xml version="1.0" encoding="UTF-8"?>
<svg width="167px" height="167px" viewBox="0 0 167 167" version="1.1" xmlns="http://www.w3.org/2000/svg" xmlns:xlink="http://www.w3.org/1999/xlink">
    <!-- Generator: Sketch 53.1 (72631) - https://sketchapp.com -->
    <title>COMMUNITY MANAGMENT</title>
    <desc>Created with Sketch.</desc>
    <defs>
        <filter x="-7.5%" y="-7.5%" width="115.1%" height="115.6%" filterUnits="objectBoundingBox" id="filter-1">
            <feOffset dx="0" dy="2" in="SourceAlpha" result="shadowOffsetOuter1"></feOffset>
            <feGaussianBlur stdDeviation="2" in="shadowOffsetOuter1" result="shadowBlurOuter1"></feGaussianBlur>
            <feColorMatrix values="0 0 0 0 0   0 0 0 0 0   0 0 0 0 0  0 0 0 0.1 0" type="matrix" in="shadowBlurOuter1" result="shadowMatrixOuter1"></feColorMatrix>
            <feMerge>
                <feMergeNode in="shadowMatrixOuter1"></feMergeNode>
                <feMergeNode in="SourceGraphic"></feMergeNode>
            </feMerge>
        </filter>
        <polygon id="path-2" points="0 0.328 158.672 0.328 158.672 159 0 159"></polygon>
        <path d="M107.0233,57.9362 C104.1063,57.9362 101.7333,55.5632 101.7323,52.6452 C101.7323,49.7282 104.1053,47.3542 107.0233,47.3542 C109.9403,47.3542 112.3143,49.7282 112.3143,52.6452 C112.3143,55.5622 109.9413,57.9362 107.0233,57.9362 M81.2663,84.9852 C76.9273,84.9862 73.3963,81.4562 73.3963,77.1162 C73.3963,72.7772 76.9263,69.2462 81.2653,69.2462 C85.6053,69.2462 89.1353,72.7762 89.1363,77.1152 C89.1363,81.4552 85.6063,84.9852 81.2663,84.9852 M86.5593,108.0242 C86.5593,110.9412 84.1853,113.3152 81.2683,113.3152 C78.3503,113.3152 75.9773,110.9422 75.9773,108.0252 C75.9773,105.1072 78.3503,102.7342 81.2673,102.7342 C84.1853,102.7332 86.5583,105.1072 86.5593,108.0242 M101.8763,95.0032 C103.3763,95.0032 104.5953,96.2232 104.5953,97.7232 C104.5953,99.2182 103.3763,100.4352 101.8763,100.4352 C100.3773,100.4352 99.1563,99.2192 99.1563,97.7232 C99.1563,96.2242 100.3773,95.0032 101.8763,95.0032 M51.6493,110.7462 C48.7313,110.7462 46.3583,108.3732 46.3583,105.4562 C46.3573,102.5342 48.7313,100.1572 51.6483,100.1562 C54.5653,100.1562 56.9393,102.5332 56.9393,105.4552 C56.9403,108.3722 54.5663,110.7462 51.6493,110.7462 M60.6563,59.2282 C59.1613,59.2282 57.9453,58.0082 57.9443,56.5082 C57.9443,55.0132 59.1613,53.7972 60.6563,53.7962 C62.1563,53.7962 63.3763,55.0132 63.3773,56.5082 C63.3773,58.0082 62.1563,59.2282 60.6563,59.2282 M107.0223,45.0572 C102.8383,45.0572 99.4343,48.4612 99.4353,52.6452 C99.4353,53.9212 99.7453,55.1382 100.3543,56.2642 L100.4053,56.3562 L87.5853,69.1782 L87.4863,69.1012 C85.6963,67.6982 83.5443,66.9562 81.2653,66.9572 C78.9963,66.9572 76.8443,67.6962 75.0443,69.0952 L74.9473,69.1712 L74.8583,69.0842 L64.9013,59.1332 L64.9583,59.0392 C65.4333,58.2462 65.6733,57.3942 65.6733,56.5082 C65.6733,53.7462 63.4223,51.4992 60.6563,51.4992 C57.8943,51.4992 55.6473,53.7472 55.6473,56.5092 C55.6473,59.2712 57.8943,61.5182 60.6573,61.5182 C61.5413,61.5182 62.3933,61.2792 63.1893,60.8082 L63.2843,60.7522 L73.3283,70.7972 L73.2523,70.8952 C71.8483,72.7032 71.1063,74.8542 71.1073,77.1162 C71.1073,79.3782 71.8483,81.5292 73.2523,83.3372 L73.3293,83.4362 L56.8353,99.9332 L56.7363,99.8422 C55.3333,98.5682 53.5263,97.8672 51.6483,97.8672 C47.4633,97.8672 44.0593,101.2712 44.0603,105.4562 C44.0603,109.6362 47.4643,113.0362 51.6493,113.0362 C55.8343,113.0362 59.2373,109.6352 59.2373,105.4552 C59.2373,104.1902 58.9193,102.9382 58.3173,101.8352 L58.2663,101.7432 L74.9483,85.0542 L75.0453,85.1302 C76.4883,86.2542 78.2023,86.9662 80.0013,87.1892 L80.1253,87.2052 L80.1253,100.5352 L80.0073,100.5552 C76.3443,101.1722 73.6853,104.3132 73.6863,108.0252 C73.6863,112.2092 77.0873,115.6132 81.2683,115.6132 C85.4533,115.6132 88.8563,112.2082 88.8563,108.0242 C88.8563,104.3132 86.1973,101.1722 82.5343,100.5552 L82.4173,100.5352 L82.4163,87.2052 L82.5393,87.1892 C84.3373,86.9662 86.0513,86.2542 87.4943,85.1292 L87.5923,85.0532 L97.6313,95.0982 L97.5763,95.1912 C97.1053,95.9892 96.8663,96.8412 96.8673,97.7242 C96.8673,100.4852 99.1143,102.7322 101.8773,102.7322 C104.6383,102.7322 106.8853,100.4852 106.8853,97.7232 C106.8843,94.9602 104.6373,92.7132 101.8763,92.7132 C100.9883,92.7142 100.1393,92.9522 99.3513,93.4232 L99.2563,93.4792 L89.2113,83.4352 L89.2873,83.3362 C90.6923,81.5292 91.4343,79.3772 91.4333,77.1152 C91.4333,74.8532 90.6913,72.7012 89.2873,70.8942 L89.2103,70.7962 L89.2973,70.7082 L101.8363,58.1682 L101.9363,58.2582 C103.3403,59.5322 105.1473,60.2332 107.0233,60.2332 C111.2083,60.2332 114.6123,56.8292 114.6123,52.6442 C114.6123,48.4602 111.2073,45.0562 107.0223,45.0572" id="path-4"></path>
        <filter x="-9.9%" y="-7.1%" width="119.8%" height="119.8%" filterUnits="objectBoundingBox" id="filter-5">
            <feOffset dx="0" dy="2" in="SourceAlpha" result="shadowOffsetOuter1"></feOffset>
            <feGaussianBlur stdDeviation="2" in="shadowOffsetOuter1" result="shadowBlurOuter1"></feGaussianBlur>
            <feColorMatrix values="0 0 0 0 0   0 0 0 0 0   0 0 0 0 0  0 0 0 0.1 0" type="matrix" in="shadowBlurOuter1"></feColorMatrix>
        </filter>
    </defs>
    <g id="Page-1" stroke="none" stroke-width="1" fill="none" fill-rule="evenodd">
        <g id="Bluebat-HeroImg" transform="translate(-1288.000000, -2526.000000)">
            <g id="COMMUNITY-MANAGMENT" filter="url(#filter-1)" transform="translate(1292.000000, 2527.000000)">
                <g id="Group-3" transform="translate(0.000000, 0.672000)">
                    <mask id="mask-3" fill="white">
                        <use xlink:href="#path-2"></use>
                    </mask>
                    <g id="Clip-2"></g>
                    <path d="M158.6728,79.6592 C158.6748,123.4752 123.1568,158.9972 79.3408,159.0002 C35.5248,159.0022 0.0028,123.4852 -0.0002,79.6682 C-0.0032,35.8522 35.5158,0.3302 79.3318,0.3272 C123.1478,0.3252 158.6698,35.8432 158.6728,79.6592" id="Fill-1" fill="#395DFF" mask="url(#mask-3)"></path>
                </g>
                <g id="Fill-4">
                    <use fill="black" fill-opacity="1" filter="url(#filter-5)" xlink:href="#path-4"></use>
                    <use fill="#FFFFFF" fill-rule="evenodd" xlink:href="#path-4"></use>
                </g>
            </g>
        </g>
    </g>
</svg>