<svg xmlns="http://www.w3.org/2000/svg" xmlns:xlink="http://www.w3.org/1999/xlink" width="269" height="46" viewBox="0 0 269 46">
    <defs>
        <path id="a" d="M.395.481h1.862V7H.395z"/>
        <path id="c" d="M.395.481h1.862V7H.395z"/>
    </defs>
    <g fill="none" fill-rule="evenodd">
        <path fill="#003268" d="M268.292 12.513c-6.957-1.399-14.505.378-18.728 3.714a13.758 13.758 0 0 1-7.297 11.926c-.55.304-1.094.544-1.621.732a13.746 13.746 0 0 1-4.762.876v-.008l-.15.006c-.048-.002-.098-.005-.148-.006v.008a13.75 13.75 0 0 1-4.762-.875 11.069 11.069 0 0 1-1.621-.732 13.759 13.759 0 0 1-7.3-11.926c-4.222-3.335-11.77-5.11-18.727-3.71 3.379 2.683 5.549 6.824 5.549 11.474 0 .31-.014.614-.034.917 5.574.342 10.25 3.997 12.08 9.023 1.513-.997 3.74-1.442 7.022-1.442 3.328 0 5.435 1.686 6.616 3.101a9.936 9.936 0 0 1 1.22 1.858l.038-.072.039.072.029-.055.03.055.039-.072.039.072c.313-.62.72-1.262 1.219-1.858 1.18-1.415 3.288-3.102 6.616-3.102 3.28 0 5.509.445 7.02 1.441 1.83-5.026 6.507-8.682 12.079-9.024a14.646 14.646 0 0 1-.033-.917c0-4.65 2.169-8.792 5.548-11.476M221.848 34.216a.246.246 0 0 1-.002-.026l-.006.024.008.002zM227.307 37.245l.033.009.048-.146a3.786 3.786 0 0 1-.08.137"/>
        <g transform="translate(230 38.415)">
            <mask id="b" fill="#fff">
                <use xlink:href="#a"/>
            </mask>
            <path fill="#0057C9" d="M2.257 6.069A.928.928 0 0 1 1.326 7a.927.927 0 0 1-.931-.931V1.412c0-.516.413-.93.93-.93.518 0 .932.413.932.93V6.07z" mask="url(#b)"/>
        </g>
        <path fill="#0057C9" d="M241.154 44.483a.926.926 0 0 1-.93.931.926.926 0 0 1-.932-.931v-4.656c0-.517.414-.931.93-.931.52 0 .932.414.932.931v4.656z"/>
        <g transform="translate(230 38.415)">
            <mask id="d" fill="#fff">
                <use xlink:href="#c"/>
            </mask>
            <path fill="#0057C9" d="M2.257 6.069A.928.928 0 0 1 1.326 7a.927.927 0 0 1-.931-.931V1.412c0-.516.413-.93.93-.93.518 0 .932.413.932.93V6.07z" mask="url(#d)"/>
        </g>
        <path fill="#0057C9" d="M241.154 44.483a.926.926 0 0 1-.93.931.926.926 0 0 1-.932-.931v-4.656c0-.517.414-.931.93-.931.52 0 .932.414.932.931v4.656z"/>
        <path fill="#0068D0" d="M244.404 11.522a1.148 1.148 0 0 0-1.3.349l-2.709 3.269a9.128 9.128 0 0 0-4.623-1.261 9.112 9.112 0 0 0-4.622 1.263l-2.709-3.269a1.144 1.144 0 0 0-1.299-.349 1.216 1.216 0 0 0-.767 1.14l.001 4.438.001 17.015c0 .274.025.541.071.803.54 4.663 4.498 8.284 9.306 8.283 4.644 0 8.497-3.38 9.238-7.815.115-.408.18-.833.18-1.272l-.002-17.015v-4.438c0-.509-.307-.963-.766-1.141"/>
        <path fill="#FFF" d="M233.902 27.052l-1.102-3.304h2.204zM237.644 27.052l-1.102-3.304h2.204z"/>
        <path fill="#0057C9" d="M240.27 39.264a9.158 9.158 0 0 1-9.159-9.16v-15.01l-2.67-3.221a1.147 1.147 0 0 0-1.299-.35 1.217 1.217 0 0 0-.768 1.142l.001 4.437.001 17.016c0 .273.026.54.072.802.54 4.663 4.498 8.284 9.305 8.284a9.362 9.362 0 0 0 8.103-4.67 9.136 9.136 0 0 1-3.586.73"/>
        <path fill="#003268" d="M18.486 34.696c1.124-1.519 1.687-3.507 1.686-5.964 0-2.497-.562-4.454-1.687-5.87-1.124-1.415-2.685-2.123-4.684-2.122-1.29 0-2.643.478-4.058 1.435l.001 13.49c1.456.874 2.892 1.311 4.308 1.311 1.831 0 3.31-.759 4.434-2.28m7.586-17.704c2.768 2.747 4.153 6.641 4.154 11.677 0 5.038-1.405 8.983-4.215 11.834-2.809 2.852-6.65 4.278-11.52 4.28-2.624 0-5.205-.896-7.744-2.686l-1.749 1.998H.003L0 .695 9.742.007l.001 13.926a12.67 12.67 0 0 1 5.12-1.062c4.704 0 8.44 1.373 11.21 4.121M33.222 44.093L33.22.693l9.741-.688.003 44.088zM68.253 13.867h9.804l.002 30.286h-5.433l-2.311-3.184a31.317 31.317 0 0 1-5.963 2.997c-2.103.791-4.113 1.187-6.027 1.187-3.79.001-6.525-1.081-8.212-3.246-1.686-2.164-2.53-5.099-2.53-8.805l-.001-19.234h9.805v18.484c0 1.499.313 2.675.937 3.528.625.854 1.582 1.28 2.873 1.28 1.873 0 4.225-.895 7.057-2.686l-.001-20.607zM91.951 26.043h10.241c-.25-1.541-.802-2.78-1.654-3.717-.855-.936-2.01-1.404-3.467-1.404-1.374 0-2.528.469-3.466 1.405-.936.937-1.488 2.176-1.654 3.716zm19.547 5.556l-19.422.001c.916 3.54 3.581 5.308 7.994 5.308 2.872 0 5.724-.791 8.555-2.374l2.748 6.807c-1.415 1.041-3.153 1.874-5.214 2.499-2.061.624-4.319.937-6.775.937-5.538 0-9.899-1.395-13.083-4.184-3.185-2.788-4.778-6.66-4.779-11.615 0-3.247.665-6.088 1.998-8.523 1.332-2.436 3.195-4.31 5.589-5.621 2.394-1.312 5.13-1.968 8.212-1.968 3.08 0 5.683.708 7.806 2.122 2.123 1.417 3.716 3.31 4.777 5.683 1.063 2.373 1.593 5.038 1.593 7.993l.001 2.935zM134.492 34.69c1.124-1.52 1.687-3.508 1.687-5.965 0-2.497-.563-4.454-1.687-5.87-1.125-1.415-2.687-2.123-4.685-2.123-1.291.001-2.643.48-4.058 1.436l.001 13.49c1.456.873 2.892 1.311 4.308 1.311 1.831 0 3.31-.76 4.434-2.28m7.586-17.704c2.768 2.747 4.154 6.64 4.154 11.677s-1.404 8.983-4.215 11.834c-2.81 2.852-6.65 4.278-11.521 4.28-2.623 0-5.204-.896-7.743-2.686l-1.749 1.998h-4.995l-.003-43.4L125.748 0l.001 13.926a12.67 12.67 0 0 1 5.12-1.062c4.704 0 8.44 1.373 11.209 4.121M156.33 34.594c0 .75.272 1.395.813 1.936.54.541 1.249.812 2.123.812 1.832 0 3.6-.79 5.308-2.374v-3.684h-4.746c-1.042 0-1.884.312-2.53.936-.645.626-.967 1.417-.967 2.374m-4.372-11.428l-2.623-7.493c1.374-.75 3.267-1.406 5.683-1.968 2.414-.562 4.579-.843 6.494-.843 2.539 0 4.787.5 6.744 1.498 1.957 1 3.467 2.404 4.528 4.215 1.062 1.811 1.593 3.883 1.593 6.213v19.297h-5.432l-2.311-3.185c-2.247 2.583-4.725 3.873-7.431 3.873-3.664 0-6.432-.906-8.306-2.716-1.873-1.81-2.81-4.277-2.81-7.4 0-3.08 1.04-5.39 3.122-6.932 2.08-1.54 4.933-2.31 8.556-2.31h4.745c-.084-1.334-.51-2.363-1.281-3.092-.77-.728-1.8-1.094-3.09-1.094-1.208.001-2.582.188-4.122.563-1.541.375-2.894.833-4.06 1.374M196.966 14.484l1.749 7.618-8.492.001V32.22c0 1.416.353 2.56 1.06 3.434.708.875 1.688 1.312 2.937 1.312 1.29 0 2.58-.333 3.87-1l2.812 6.807c-.708.583-1.79 1.104-3.248 1.561-1.457.458-2.81.687-4.058.687-3.831.001-6.974-.998-9.43-2.997-2.457-1.998-3.684-4.828-3.684-8.492l-.001-11.428h-4.371l-.001-7.618h4.37V6.803l9.742-1.499v9.18h6.745z"/>
    </g>
</svg>
