<svg xmlns="http://www.w3.org/2000/svg" xmlns:xlink="http://www.w3.org/1999/xlink" width="78" height="87" viewBox="0 0 78 87">
    <defs>
        <path id="a" d="M.463.476h37.423V72H.463z"/>
    </defs>
    <g fill="none" fill-rule="evenodd">
        <g transform="translate(18 14.252)">
            <mask id="b" fill="#fff">
                <use xlink:href="#a"/>
            </mask>
            <path fill="#2F302F" d="M26.822 56.84l-.009.003v.001c-.04.023-.079.047-.116.072-.017.01-.032.024-.048.036l-.058.044c-.022.018-.04.036-.06.054l-.04.038c-.02.02-.038.041-.057.063l-.033.037-.047.063c-.01.017-.023.032-.034.049-.013.019-.023.038-.035.058-.012.02-.025.04-.035.06l-.025.05-.033.074a.25.25 0 0 0-.016.047.798.798 0 0 0-.04.13c-.008.027-.016.054-.02.081a.786.786 0 0 0-.012.07c-.003.022-.007.041-.009.064a1.313 1.313 0 0 0-.006.126v11.144l-16.749.002V58.79a18.723 18.723 0 0 0 3.452 1.687 1.398 1.398 0 0 0 1.792-.832 1.399 1.399 0 0 0-.833-1.792C7.475 55.556 3.26 49.547 3.26 42.892v-13.8L3.256 12.22a2.703 2.703 0 0 1 2.701-2.702c1.49 0 2.7 1.211 2.7 2.7l.001 12.087.001 5.465v7.47a5.5 5.5 0 0 0 5.27 5.488c-.225.358-.44.727-.637 1.106a1.396 1.396 0 1 0 2.478 1.29 12.174 12.174 0 0 1 10.832-6.577h1.692a1.396 1.396 0 1 0 0-2.792H22.35a2.703 2.703 0 0 1-2.7-2.697v-.007a2.704 2.704 0 0 1 2.7-2.699h10.042a2.678 2.678 0 0 1 1.52.47 2.7 2.7 0 0 1 1.182 2.23v9.84a15.923 15.923 0 0 1-8.27 13.947zM14.154 21.604a2.704 2.704 0 0 1 2.7 2.698v.003l.001 8.748V37.24a2.703 2.703 0 0 1-2.7 2.7 2.704 2.704 0 0 1-2.7-2.7l-.002-7.47v-5.465a2.704 2.704 0 0 1 2.701-2.7zm8.195 0a2.704 2.704 0 0 1 2.702 2.7v3.255H22.35c-.98 0-1.902.26-2.7.712v-3.96-.006-.003a2.704 2.704 0 0 1 2.7-2.697zm5.494-15.633a2.704 2.704 0 0 1 2.701-2.7 2.704 2.704 0 0 1 2.701 2.7l.001 21.654a5.48 5.48 0 0 0-.855-.067h-4.547V5.971zM36.04 28.95V5.97A5.502 5.502 0 0 0 30.543.477a5.5 5.5 0 0 0-5.494 5.495v13.552a5.477 5.477 0 0 0-6.798 1.127 5.488 5.488 0 0 0-4.099-1.84c-.98 0-1.902.26-2.7.713V12.22a5.501 5.501 0 0 0-5.496-5.494A5.5 5.5 0 0 0 .463 12.22l.001 16.873.001 13.802c0 5.32 2.294 10.287 6.08 13.77l.001 13.938c0 .772.626 1.398 1.397 1.398l19.543-.002c.772 0 1.397-.625 1.397-1.397v-11.73a18.71 18.71 0 0 0 9.003-15.98v-9.84c0-1.63-.714-3.096-1.846-4.102z" mask="url(#b)"/>
        </g>
        <path fill="#395DFF" d="M17.366 7.182a2.257 2.257 0 0 0 1.734.808 2.262 2.262 0 0 0 1.731-3.716L17.924.81a2.262 2.262 0 0 0-3.464 2.908l2.906 3.464zM12.964 16.557a2.263 2.263 0 0 0-.828-3.09l-3.917-2.261a2.265 2.265 0 0 0-3.091.828 2.264 2.264 0 0 0 .828 3.089l3.918 2.261a2.262 2.262 0 0 0 3.09-.827M7.108 25.08l-4.454-.785a2.262 2.262 0 0 0-.785 4.454l4.455.785A2.26 2.26 0 0 0 8.942 27.7a2.26 2.26 0 0 0-1.834-2.62M77.253 25.972a2.264 2.264 0 0 0-2.62-1.834l-4.454.785a2.261 2.261 0 1 0 .786 4.454l4.453-.785a2.261 2.261 0 0 0 1.835-2.62M72.077 11.942a2.264 2.264 0 0 0-3.09-.828l-3.916 2.261a2.261 2.261 0 0 0 2.26 3.917l3.917-2.26a2.262 2.262 0 0 0 .83-3.09M56.599 7.458a2.257 2.257 0 0 0 3.186-.278l2.907-3.464A2.26 2.26 0 1 0 59.229.808l-2.907 3.464a2.263 2.263 0 0 0 .278 3.186"/>
    </g>
</svg>
