<svg xmlns="http://www.w3.org/2000/svg" xmlns:xlink="http://www.w3.org/1999/xlink" width="681" height="132" viewBox="0 0 681 132">
    <defs>
        <path id="a" d="M0 .22h6.856v5.135H0z"/>
    </defs>
    <g fill="none" fill-rule="evenodd">
        <g stroke="#FFF">
            <path fill="#2F302F" stroke-width=".6" d="M334.434 113.845l-.313-.08c-.88-.22-1.779-.453-2.67-.693a2.849 2.849 0 0 0-2.994.997 18.434 18.434 0 0 1-3.218 3.22 2.842 2.842 0 0 0-.995 2.992c.241.897.474 1.793.693 2.667l.079.314-4.526 1.875-.166-.278c-.469-.78-.938-1.58-1.397-2.376a2.84 2.84 0 0 0-2.819-1.412c-1.508.188-3.04.188-4.552 0a2.847 2.847 0 0 0-2.822 1.41 151.68 151.68 0 0 1-1.397 2.379l-.166.277-4.526-1.875.079-.314c.22-.877.453-1.775.693-2.668a2.846 2.846 0 0 0-.997-2.994 18.394 18.394 0 0 1-3.219-3.218 2.846 2.846 0 0 0-2.993-.995c-.892.24-1.79.474-2.668.694l-.313.078-1.875-4.527.278-.165c.778-.467 1.576-.936 2.376-1.397a2.844 2.844 0 0 0 1.412-2.819 18.497 18.497 0 0 1 .001-4.552 2.845 2.845 0 0 0-1.412-2.823c-.8-.46-1.598-.928-2.377-1.395l-.278-.168 1.875-4.525.313.078c.877.22 1.775.453 2.669.694a2.852 2.852 0 0 0 2.994-.997 18.463 18.463 0 0 1 3.218-3.22 2.843 2.843 0 0 0 .995-2.991c-.239-.89-.472-1.787-.693-2.668l-.078-.314 4.525-1.874.166.277c.466.776.936 1.575 1.397 2.377a2.84 2.84 0 0 0 2.819 1.412 18.448 18.448 0 0 1 4.553 0 2.843 2.843 0 0 0 2.821-1.411c.461-.8.931-1.6 1.398-2.378l.166-.277 4.526 1.874-.079.315a178.95 178.95 0 0 1-.693 2.668 2.84 2.84 0 0 0 .997 2.993 18.503 18.503 0 0 1 3.219 3.219 2.842 2.842 0 0 0 2.992.995c.892-.24 1.79-.473 2.668-.693l.313-.08L336.309 96l-.278.167c-.777.465-1.576.934-2.376 1.395a2.843 2.843 0 0 0-1.413 2.82 18.538 18.538 0 0 1 0 4.552 2.846 2.846 0 0 0 1.412 2.822c.798.46 1.595.929 2.377 1.397l.278.166-1.875 4.526zm4.313-3.368a2.868 2.868 0 0 0-1.161-3.536c-.807-.485-1.636-.973-2.465-1.451l-.214-.124.029-.245c.191-1.633.191-3.29.001-4.923l-.029-.245.213-.123c.833-.481 1.661-.968 2.464-1.451a2.868 2.868 0 0 0 1.162-3.537l-1.77-4.273a2.87 2.87 0 0 0-3.321-1.68c-.911.227-1.842.468-2.769.717l-.239.064-.152-.193a21.123 21.123 0 0 0-3.483-3.481l-.194-.153.064-.24c.25-.926.49-1.857.717-2.768a2.868 2.868 0 0 0-1.679-3.322l-4.273-1.77a2.87 2.87 0 0 0-3.536 1.16c-.486.807-.973 1.636-1.451 2.466l-.124.214-.246-.028a21.047 21.047 0 0 0-4.922-.001l-.246.028-.124-.214c-.479-.832-.966-1.661-1.45-2.464a2.868 2.868 0 0 0-3.536-1.161l-4.274 1.77a2.867 2.867 0 0 0-1.679 3.32c.228.913.468 1.845.717 2.77l.063.239-.193.152a21.156 21.156 0 0 0-3.481 3.482l-.152.193-.239-.064a167.56 167.56 0 0 0-2.77-.717 2.874 2.874 0 0 0-3.321 1.68l-1.771 4.273a2.867 2.867 0 0 0 1.162 3.536c.806.485 1.635.973 2.465 1.452l.214.123-.029.245a21.22 21.22 0 0 0-.001 4.923l.029.245-.214.124c-.831.48-1.659.967-2.464 1.451a2.867 2.867 0 0 0-1.162 3.536l1.771 4.274a2.87 2.87 0 0 0 3.321 1.68c.909-.228 1.841-.469 2.768-.718l.239-.063.152.193a21.24 21.24 0 0 0 3.483 3.481l.193.153-.063.238c-.25.93-.49 1.86-.717 2.77a2.866 2.866 0 0 0 1.679 3.321l4.274 1.771c1.264.524 2.835.003 3.536-1.162.482-.8.97-1.629 1.451-2.465l.124-.214.246.03c1.633.19 3.291.191 4.922 0l.246-.029.124.214c.476.827.963 1.655 1.45 2.465a2.87 2.87 0 0 0 3.536 1.161l4.274-1.77a2.868 2.868 0 0 0 1.679-3.322c-.226-.905-.466-1.836-.717-2.769l-.063-.238.193-.153a21.195 21.195 0 0 0 3.481-3.482l.152-.193.238.063c.928.25 1.859.49 2.771.717a2.867 2.867 0 0 0 3.321-1.679l1.77-4.274z"/>
            <path fill="#2F302F" stroke-width=".6" d="M321.841 105.977a8.617 8.617 0 0 1-4.69 4.696 8.652 8.652 0 0 1-3.32.665 8.652 8.652 0 0 1-3.32-.665 8.615 8.615 0 0 1-4.695-4.694 8.612 8.612 0 0 1 .004-6.638 8.612 8.612 0 0 1 4.691-4.697 8.608 8.608 0 0 1 3.31-.66 8.657 8.657 0 0 1 8.024 5.355 8.612 8.612 0 0 1-.004 6.638m-3.66-13.819a11.369 11.369 0 0 0-4.36-.874 11.31 11.31 0 0 0-4.342.87c-5.793 2.398-8.554 9.063-6.155 14.856a11.296 11.296 0 0 0 6.155 6.155 11.345 11.345 0 0 0 8.703 0c5.793-2.4 8.554-9.065 6.154-14.858a11.296 11.296 0 0 0-6.156-6.149"/>
            <path fill="#395DFF" stroke-width=".5" d="M362.425 72.265l-.32.047c-.543.078-1.096.155-1.65.227a2.345 2.345 0 0 0-1.968 1.705 13.145 13.145 0 0 1-1.24 2.993 2.352 2.352 0 0 0 .184 2.599c.341.442.68.887 1.007 1.327l.193.26-2.173 2.174-.26-.194c-.442-.33-.886-.666-1.329-1.006a2.35 2.35 0 0 0-2.598-.185c-.942.535-1.949.952-2.992 1.24a2.347 2.347 0 0 0-1.706 1.968c-.072.554-.149 1.107-.227 1.649l-.047.322h-3.074l-.047-.322c-.078-.542-.155-1.094-.228-1.648a2.349 2.349 0 0 0-1.705-1.97 13.177 13.177 0 0 1-2.992-1.238 2.347 2.347 0 0 0-2.599.184c-.442.34-.886.677-1.328 1.006l-.26.194-2.173-2.174.193-.26c.328-.44.666-.885 1.006-1.328a2.35 2.35 0 0 0 .186-2.6 13.074 13.074 0 0 1-1.24-2.991 2.346 2.346 0 0 0-1.968-1.705c-.555-.073-1.108-.15-1.65-.228l-.32-.046V69.19l.32-.047c.542-.078 1.096-.154 1.65-.227a2.346 2.346 0 0 0 1.967-1.705c.287-1.044.705-2.05 1.241-2.992a2.352 2.352 0 0 0-.185-2.6 108.34 108.34 0 0 1-1.007-1.327l-.193-.26 2.173-2.174.26.194c.442.329.886.667 1.328 1.006a2.351 2.351 0 0 0 2.6.185 13.074 13.074 0 0 1 2.991-1.24 2.348 2.348 0 0 0 1.705-1.967c.073-.555.15-1.108.228-1.65l.047-.321h3.074l.047.32c.078.543.155 1.096.227 1.65a2.349 2.349 0 0 0 1.706 1.968 13.19 13.19 0 0 1 2.992 1.24 2.349 2.349 0 0 0 2.598-.185c.443-.34.887-.677 1.33-1.006l.26-.194 2.172 2.174-.193.26c-.328.44-.666.885-1.007 1.328a2.353 2.353 0 0 0-.185 2.599c.535.94.952 1.948 1.241 2.992a2.348 2.348 0 0 0 1.967 1.706c.554.072 1.108.148 1.65.227l.321.047v3.074zm2.524.144v-3.363a2.369 2.369 0 0 0-2.003-2.33c-.593-.09-1.203-.175-1.816-.257l-.24-.032-.069-.232a15.672 15.672 0 0 0-1.207-2.91l-.115-.214.148-.192c.376-.491.745-.983 1.102-1.466a2.368 2.368 0 0 0-.23-3.065l-2.378-2.377a2.369 2.369 0 0 0-3.065-.231c-.484.359-.976.729-1.465 1.103l-.192.147-.214-.115a15.71 15.71 0 0 0-2.912-1.206l-.23-.07-.034-.24a115.26 115.26 0 0 0-.255-1.815 2.369 2.369 0 0 0-2.33-2.004h-3.363c-1.158 0-2.16.86-2.33 2.003-.089.593-.176 1.202-.257 1.816l-.032.24-.23.07a15.589 15.589 0 0 0-2.912 1.206l-.213.115-.193-.147c-.49-.374-.98-.745-1.466-1.103a2.368 2.368 0 0 0-3.064.23l-2.377 2.378a2.367 2.367 0 0 0-.23 3.065c.356.483.725.975 1.1 1.466l.148.192-.116.214a15.696 15.696 0 0 0-1.206 2.91l-.07.232-.239.032c-.614.082-1.223.168-1.816.257a2.37 2.37 0 0 0-2.004 2.33v3.363a2.37 2.37 0 0 0 2.004 2.33c.593.089 1.202.175 1.816.256l.24.032.07.232a15.724 15.724 0 0 0 1.205 2.91l.116.214-.148.193c-.375.49-.745.982-1.102 1.466a2.369 2.369 0 0 0 .231 3.064l2.377 2.378a2.37 2.37 0 0 0 3.065.23c.485-.358.976-.728 1.465-1.102l.193-.147.213.115c.926.498 1.906.904 2.911 1.206l.232.07.032.24c.081.613.167 1.222.256 1.815a2.369 2.369 0 0 0 2.331 2.004h3.363a2.369 2.369 0 0 0 2.33-2.004c.088-.593.174-1.202.255-1.815l.033-.24.231-.07a15.645 15.645 0 0 0 2.911-1.206l.213-.115.193.147c.49.374.981.744 1.465 1.102a2.37 2.37 0 0 0 3.065-.23l2.38-2.377a2.372 2.372 0 0 0 .23-3.066c-.358-.483-.728-.975-1.103-1.465l-.148-.193.115-.213a15.66 15.66 0 0 0 1.207-2.911l.07-.232.24-.032c.612-.081 1.222-.167 1.815-.256a2.369 2.369 0 0 0 2.003-2.33z"/>
            <path fill="#395DFF" stroke-width=".5" d="M345.762 74.978a4.256 4.256 0 0 1-4.25-4.25 4.256 4.256 0 0 1 4.25-4.253 4.256 4.256 0 0 1 4.251 4.253 4.256 4.256 0 0 1-4.25 4.25m0-10.854a6.61 6.61 0 0 0-6.605 6.603 6.61 6.61 0 0 0 6.604 6.603 6.61 6.61 0 0 0 6.604-6.602 6.61 6.61 0 0 0-6.604-6.605"/>
        </g>
        <path fill="#2F302F" stroke="#FFF" stroke-width=".7" d="M71.99 117.158l-20.272-13.177-3.071-1.992L88.32 72.81 71.99 117.16zm9.849-44.753L37.133 95.308l-18.61-9.81L81.84 72.404zM43.5 115.96l3.585-11.848 5.583 3.63 1.6 1.04-5.43 3.618-5.338 3.56zm33.622-38.18l-31.567 23.215c-.051.038-.095.084-.141.128-.014.02-.031.033-.045.045-.032.032-.051.065-.077.096-.027.033-.044.065-.065.098-.05.077-.09.16-.121.25-.007.013-.02.026-.02.044-.006.007-.013.007-.013.013l-3.616 11.76-2.866-15.909 38.53-19.74zm15.24-8.4c.006-.032.02-.065.02-.096.005-.098 0-.195-.014-.297v-.07a1.32 1.32 0 0 0-.135-.379c-.013-.026-.026-.046-.038-.065v-.012s-.006 0-.006-.006c-.013-.014-.02-.033-.026-.046a1.31 1.31 0 0 0-.297-.302c-.018-.019-.051-.026-.075-.046a1.351 1.351 0 0 0-.31-.152c-.051-.014-.101-.02-.147-.033a1.437 1.437 0 0 0-.45-.014c-.033.007-.064 0-.103.007L14.399 83.66a1.32 1.32 0 0 0-1.034 1.106 1.323 1.323 0 0 0 .687 1.348l21.884 11.54 3.844 21.3c-.007.02 0 .037 0 .05a1.391 1.391 0 0 0 .026.47c.027.122.078.237.142.346.013.026.013.052.026.07l.018.02c.02.02.04.045.058.064.066.078.129.148.2.206a.131.131 0 0 0 .039.033c.019.018.037.018.057.031.084.058.167.097.25.135.04.013.07.026.11.04.115.031.237.057.36.057h.007s.012-.006.019-.006a.228.228 0 0 0 .063.006c.367 0 .694-.168.939-.418l14.579-9.715 15.259 9.92c.219.14.47.211.72.211.143 0 .284-.026.419-.07a1.29 1.29 0 0 0 .815-.792l18.419-49.989c.013-.046.027-.097.038-.142.006-.019.006-.039.013-.057.007-.013.007-.033.007-.046z"/>
        <path fill="#395DFF" d="M28.368 106.361a1.42 1.42 0 0 0-1.938-.529l-16.291 9.305a1.423 1.423 0 0 0 1.41 2.468l16.29-9.305c.68-.389.919-1.257.529-1.939"/>
        <g transform="translate(0 117.82)">
            <mask id="b" fill="#fff">
                <use xlink:href="#a"/>
            </mask>
            <path fill="#395DFF" d="M4.73.408L.716 2.7a1.42 1.42 0 1 0 1.41 2.467L6.14 2.876A1.42 1.42 0 0 0 4.73.408" mask="url(#b)"/>
        </g>
        <path fill="#395DFF" d="M19.033 125a1.428 1.428 0 0 0-1.078.137 1.427 1.427 0 0 0-.666.86c-.1.36-.05.754.137 1.079.185.324.499.568.859.666.36.098.755.048 1.079-.137.324-.186.567-.5.666-.86a1.43 1.43 0 0 0-.137-1.08 1.434 1.434 0 0 0-.86-.665M30.937 117.72l-8.628 4.93a1.42 1.42 0 0 0 .33 2.603c.352.096.738.058 1.079-.137l8.629-4.928a1.42 1.42 0 0 0-1.41-2.468M58.165 120.082l-8.61 5.013a1.42 1.42 0 1 0 1.43 2.456l8.611-5.013a1.422 1.422 0 0 0-1.43-2.456"/>
        <g>
            <path fill="#2F302F" d="M591.699 76.4c-9.422 2.142-14.61 5.466-14.61 9.359 0 2.273 1.823 5.55 10.506 8.263 6.489 2.025 15.097 3.14 24.242 3.14 11.052 0 21.16-1.608 27.729-4.411.954-.41 1.127-.554 1.15-.58l.108-.097.322-.191c2.55-1.508 5.439-3.217 5.439-6.124 0-3.895-5.194-7.22-14.623-9.362a.8.8 0 0 0-.61.104.799.799 0 0 0-.354.503.804.804 0 0 0 .606.965c7.823 1.778 12.945 4.743 13.365 7.738.33 2.357-3.306 4.118-5.478 5.169-.533.258-.997.483-1.25.644l-.044.032c-6.383 2.519-16.21 3.998-26.36 3.998-8.99 0-17.426-1.09-23.76-3.067-5.958-1.86-9.376-4.311-9.376-6.724 0-2.93 5.118-5.914 13.355-7.787a.803.803 0 0 0 .609-.965.809.809 0 0 0-.966-.607"/>
            <path stroke="#2F302F" stroke-width=".091" d="M591.699 76.4c-9.422 2.142-14.61 5.466-14.61 9.359 0 2.273 1.823 5.55 10.506 8.263 6.489 2.025 15.097 3.14 24.242 3.14 11.052 0 21.16-1.608 27.729-4.411.954-.41 1.127-.554 1.15-.58l.108-.097.322-.191c2.55-1.508 5.439-3.217 5.439-6.124 0-3.895-5.194-7.22-14.623-9.362a.8.8 0 0 0-.61.104.799.799 0 0 0-.354.503.804.804 0 0 0 .606.965c7.823 1.778 12.945 4.743 13.365 7.738.33 2.357-3.306 4.118-5.478 5.169-.533.258-.997.483-1.25.644l-.044.032c-6.383 2.519-16.21 3.998-26.36 3.998-8.99 0-17.426-1.09-23.76-3.067-5.958-1.86-9.376-4.311-9.376-6.724 0-2.93 5.118-5.914 13.355-7.787a.803.803 0 0 0 .609-.965.809.809 0 0 0-.966-.607z"/>
            <path fill="#2F302F" d="M597.094 127.742c3.95 1.233 9.187 1.912 14.742 1.912 5.557 0 10.793-.68 14.742-1.912 4.3-1.343 6.573-3.175 6.573-5.298V95.287a.807.807 0 0 0-1.613 0v27.157c0 2.642-8.425 5.597-19.702 5.597-11.276 0-19.703-2.955-19.703-5.597v-2.287a.806.806 0 0 0-1.61 0v2.287c0 2.123 2.271 3.955 6.571 5.298"/>
            <path stroke="#2F302F" stroke-width=".091" d="M597.094 127.742c3.95 1.233 9.187 1.912 14.742 1.912 5.557 0 10.793-.68 14.742-1.912 4.3-1.343 6.573-3.175 6.573-5.298V95.287a.807.807 0 0 0-1.613 0v27.157c0 2.642-8.425 5.597-19.702 5.597-11.276 0-19.703-2.955-19.703-5.597v-2.287a.806.806 0 0 0-1.61 0v2.287c0 2.123 2.271 3.955 6.571 5.298z"/>
            <path fill="#2F302F" d="M591.327 94.48a.807.807 0 0 0-.805.807v14.124c0 .444.362.806.805.806a.808.808 0 0 0 .807-.806V95.287a.808.808 0 0 0-.807-.806"/>
            <path stroke="#2F302F" stroke-width=".091" d="M591.327 94.48a.807.807 0 0 0-.805.807v14.124c0 .444.362.806.805.806a.808.808 0 0 0 .807-.806V95.287a.808.808 0 0 0-.807-.806z"/>
            <path fill="#2F302F" d="M606.254 87.288l-.037.22-.222-.014a92.81 92.81 0 0 1-2.741-.203l-.266-.024.043-.263c.536-3.24 2.1-14.299-.25-20.604a.918.918 0 0 0-.484-.52.93.93 0 0 0-1.259 1.17c2.181 5.852.654 16.628.133 19.791l-.039.234-.234-.028a78.508 78.508 0 0 1-2.849-.387l-.18-.028-.027-.179a58.896 58.896 0 0 1-.678-8.904c0-7.943 1.634-15.86 4.724-22.895l.225-.516.227.516c3.092 7.038 4.726 14.956 4.726 22.895 0 3.264-.273 6.541-.812 9.74m12.434 2.004a89.56 89.56 0 0 0 4.101-.374 77.762 77.762 0 0 0 4.035-.568 62.068 62.068 0 0 0 3.863-.77c.895-.214 1.47-.942 1.47-1.823 0-.88-.569-1.607-1.417-1.808a1.073 1.073 0 0 0-.153-.029.93.93 0 0 0-.782 1.568l.304.317-.429.096c-.504.113-1.023.221-1.55.323l-.34.067.047-.344a60.734 60.734 0 0 0-.117-17.62.923.923 0 0 0-.37-.609.932.932 0 0 0-1.469.892 58.938 58.938 0 0 1 .004 17.834l-.027.18-.18.027c-.928.145-1.888.275-2.853.39l-.235.027-.038-.234c-.52-3.162-2.048-13.933.134-19.787a.931.931 0 0 0-1.258-1.17.923.923 0 0 0-.485.521c-2.348 6.302-.786 17.361-.25 20.6l.041.263-.265.024a90.457 90.457 0 0 1-2.74.205l-.222.014-.037-.22a58.933 58.933 0 0 1-.81-9.736c0-7.94 1.632-15.858 4.724-22.896l.226-.515.227.515a54.737 54.737 0 0 1 1.636 4.181.931.931 0 0 0 1.759-.606 56.054 56.054 0 0 0-2.789-6.667.926.926 0 0 0-.834-.515.928.928 0 0 0-.833.515c-3.91 7.867-5.978 16.854-5.978 25.988 0 3.275.266 6.561.79 9.768l.044.277-.28.01c-2.33.083-4.678.083-6.979.002l-.282-.01.046-.277c.524-3.199.79-6.486.79-9.77 0-9.133-2.069-18.119-5.98-25.988a.924.924 0 0 0-.834-.515.926.926 0 0 0-.833.515c-3.91 7.866-5.976 16.853-5.976 25.988 0 2.798.197 5.627.586 8.41l.047.342-.339-.066a56.373 56.373 0 0 1-1.605-.333l-.429-.096.304-.317a.92.92 0 0 0 .253-.757.916.916 0 0 0-.349-.62.923.923 0 0 0-.823-.166 1.833 1.833 0 0 0-1.433 1.812c0 .881.57 1.608 1.417 1.81a60.52 60.52 0 0 0 3.968.791c1.22.206 2.56.394 3.981.56a89.428 89.428 0 0 0 6.06.488 100.15 100.15 0 0 0 11.746-.114"/>
            <path stroke="#2F302F" stroke-width=".091" d="M606.254 87.288l-.037.22-.222-.014a92.81 92.81 0 0 1-2.741-.203l-.266-.024.043-.263c.536-3.24 2.1-14.299-.25-20.604a.918.918 0 0 0-.484-.52.93.93 0 0 0-1.259 1.17c2.181 5.852.654 16.628.133 19.791l-.039.234-.234-.028a78.508 78.508 0 0 1-2.849-.387l-.18-.028-.027-.179a58.896 58.896 0 0 1-.678-8.904c0-7.943 1.634-15.86 4.724-22.895l.225-.516.227.516c3.092 7.038 4.726 14.956 4.726 22.895 0 3.264-.273 6.541-.812 9.74zm12.434 2.005a89.56 89.56 0 0 0 4.101-.374 77.762 77.762 0 0 0 4.035-.568 62.068 62.068 0 0 0 3.863-.77c.895-.214 1.47-.942 1.47-1.823 0-.88-.569-1.607-1.417-1.808a1.073 1.073 0 0 0-.153-.029.93.93 0 0 0-.782 1.568l.304.317-.429.096c-.504.113-1.023.221-1.55.323l-.34.067.047-.344a60.734 60.734 0 0 0-.117-17.62.923.923 0 0 0-.37-.609.932.932 0 0 0-1.469.892 58.938 58.938 0 0 1 .004 17.834l-.027.18-.18.027c-.928.145-1.888.275-2.853.39l-.235.027-.038-.234c-.52-3.162-2.048-13.933.134-19.787a.931.931 0 0 0-1.258-1.17.923.923 0 0 0-.485.521c-2.348 6.302-.786 17.361-.25 20.6l.041.263-.265.024a90.457 90.457 0 0 1-2.74.205l-.222.014-.037-.22a58.933 58.933 0 0 1-.81-9.736c0-7.94 1.632-15.858 4.724-22.896l.226-.515.227.515a54.737 54.737 0 0 1 1.636 4.181.931.931 0 0 0 1.759-.606 56.054 56.054 0 0 0-2.789-6.667.926.926 0 0 0-.834-.515.928.928 0 0 0-.833.515c-3.91 7.867-5.978 16.854-5.978 25.988 0 3.275.266 6.561.79 9.768l.044.277-.28.01c-2.33.083-4.678.083-6.979.002l-.282-.01.046-.277c.524-3.199.79-6.486.79-9.77 0-9.133-2.069-18.119-5.98-25.988a.924.924 0 0 0-.834-.515.926.926 0 0 0-.833.515c-3.91 7.866-5.976 16.853-5.976 25.988 0 2.798.197 5.627.586 8.41l.047.342-.339-.066a56.373 56.373 0 0 1-1.605-.333l-.429-.096.304-.317a.92.92 0 0 0 .253-.757.916.916 0 0 0-.349-.62.923.923 0 0 0-.823-.166 1.833 1.833 0 0 0-1.433 1.812c0 .881.57 1.608 1.417 1.81a60.52 60.52 0 0 0 3.968.791c1.22.206 2.56.394 3.981.56a89.428 89.428 0 0 0 6.06.488 100.15 100.15 0 0 0 11.746-.114z"/>
            <path fill="#2F302F" d="M578.108 124.43c-1.92-6.284-6.616-8.997-10.321-10.187 3.705-1.19 8.4-3.904 10.319-10.189 1.919 6.285 6.616 8.997 10.32 10.188-3.704 1.191-8.4 3.903-10.318 10.188m.858-26.793a.876.876 0 0 0-.86-.86.876.876 0 0 0-.86.86c0 15.216-13.098 15.746-14.553 15.746a.747.747 0 0 0-.53.2c-.132.065-.198.197-.264.263a.977.977 0 0 0 0 .86c.132.265.463.463.794.463h.066c1.522 0 14.554.53 14.555 15.744 0 .463.398.86.86.86.463 0 .86-.397.86-.86-.001-15.149 13.032-15.745 14.553-15.745.33 0 .595-.199.794-.464a.815.815 0 0 0-.066-.86c-.133-.264-.463-.397-.728-.463-1.521 0-14.621-.528-14.621-15.744"/>
            <path stroke="#2F302F" stroke-width=".091" d="M578.108 124.43c-1.92-6.284-6.616-8.997-10.321-10.187 3.705-1.19 8.4-3.904 10.319-10.189 1.919 6.285 6.616 8.997 10.32 10.188-3.704 1.191-8.4 3.903-10.318 10.188zm.858-26.793a.876.876 0 0 0-.86-.86.876.876 0 0 0-.86.86c0 15.216-13.098 15.746-14.553 15.746a.747.747 0 0 0-.53.2c-.132.065-.198.197-.264.263a.977.977 0 0 0 0 .86c.132.265.463.463.794.463h.066c1.522 0 14.554.53 14.555 15.744 0 .463.398.86.86.86.463 0 .86-.397.86-.86-.001-15.149 13.032-15.745 14.553-15.745.33 0 .595-.199.794-.464a.815.815 0 0 0-.066-.86c-.133-.264-.463-.397-.728-.463-1.521 0-14.621-.528-14.621-15.744z"/>
            <path fill="#395DFF" d="M633.47 71.788c0-8.133 6.97-8.391 7.744-8.391h.065c.452 0 .84-.388.84-.904a.854.854 0 0 0-.84-.84c-.775 0-7.746-.257-7.746-8.39a.854.854 0 0 0-.839-.838.854.854 0 0 0-.839.839c.001 8.132-6.97 8.39-7.744 8.39h-.066c-.45.066-.774.388-.774.84 0 .452.387.839.84.839.838 0 7.745.258 7.745 8.39 0 .452.387.84.84.84.386.129.774-.26.774-.775"/>
        </g>
        <path stroke="#2F302F" stroke-dasharray="6" stroke-linecap="round" stroke-width="3" d="M116.695 101.894c7.732 2.087 15.833 3.819 23.703 2.332 7.87-1.486 15.489-6.927 17.252-14.74 1.763-7.814-4.551-17.07-12.534-16.42-6.134.5-10.802 6.348-11.794 12.422-.993 6.074.909 12.24 3.27 17.923 1.5 3.613 3.24 7.21 5.937 10.043 4.649 4.886 11.518 6.897 18.134 8.209 30.562 6.06 63.19 1.104 90.574-13.76M375.727 102.268c6.674-6.875 13.663-13.961 22.649-17.287 8.986-3.327 20.574-1.707 25.89 6.264 2.419 3.625 2.9 9.253-.644 11.785-3.258 2.327-8.197.485-10.301-2.921-2.105-3.406-2.001-7.734-1.234-11.663 2.104-10.765 9.94-21.207 20.795-22.781 9.993-1.45 19.57 4.784 26.4 12.22 6.832 7.438 12.064 16.347 19.67 22.988 15.728 13.733 41.066 14.867 57.958 2.593"/>
        <text fill="#4A4A4A" font-family="Catamaran-Black, Catamaran" font-size="15" font-weight="700" transform="translate(-1 -4)">
            <tspan x=".215" y="32">NOS CONTACTAS</tspan>
        </text>
        <text fill="#4A4A4A" font-family="Catamaran-Black, Catamaran" font-size="15" font-weight="700" transform="translate(-1 -4)">
            <tspan x="584.388" y="17">HACEMOS</tspan> <tspan x="559" y="37">NUESTRA MAGIA</tspan>
        </text>
        <text fill="#4A4A4A" font-family="Catamaran-Black, Catamaran" font-size="15" font-weight="700" transform="translate(-1 -4)">
            <tspan x="294.955" y="17">EVALUAMOS</tspan> <tspan x="289" y="37">TU PROYECTO</tspan>
        </text>
    </g>
</svg>
