<svg xmlns="http://www.w3.org/2000/svg" xmlns:xlink="http://www.w3.org/1999/xlink" width="42" height="42" viewBox="0 0 42 42">
    <defs>
        <path id="a" d="M0 .64h41.282v41.28H0z"/>
    </defs>
    <g fill="none" fill-rule="evenodd">
        <path fill="#818181" d="M27.243 15.718a1.515 1.515 0 0 1-1.515-1.513c0-.834.68-1.514 1.514-1.514.833 0 1.514.68 1.515 1.514 0 .835-.68 1.513-1.514 1.513m-6.603 11.47a6.405 6.405 0 0 1-6.396-6.396 6.404 6.404 0 0 1 6.395-6.396 6.403 6.403 0 0 1 6.397 6.396 6.404 6.404 0 0 1-6.396 6.396m6.153-16.11l-12.305.001a3.563 3.563 0 0 0-3.56 3.562v12.303a3.566 3.566 0 0 0 3.562 3.563h12.304a3.569 3.569 0 0 0 3.562-3.565V14.64a3.566 3.566 0 0 0-3.563-3.562"/>
        <path fill="#818181" d="M20.64 17.1a3.696 3.696 0 0 0-3.691 3.692 3.698 3.698 0 0 0 3.692 3.694 3.698 3.698 0 0 0 3.694-3.694A3.698 3.698 0 0 0 20.64 17.1"/>
        <g transform="translate(0 -.544)">
            <mask id="b" fill="#fff">
                <use xlink:href="#a"/>
            </mask>
            <path fill="#818181" d="M33.058 27.487a6.27 6.27 0 0 1-6.264 6.266H14.49a6.273 6.273 0 0 1-6.266-6.265l-.001-12.302a6.275 6.275 0 0 1 6.265-6.266h12.304c3.454-.001 6.264 2.81 6.264 6.265v12.302zM20.638.64C9.24.64-.001 9.883 0 21.28c0 11.4 9.243 20.642 20.642 20.64 11.399 0 20.64-9.242 20.64-20.641C41.28 9.879 32.038.639 20.639.639z" mask="url(#b)"/>
        </g>
    </g>
</svg>
