<svg xmlns="http://www.w3.org/2000/svg" xmlns:xlink="http://www.w3.org/1999/xlink" width="86" height="71" viewBox="0 0 86 71">
    <defs>
        <path id="a" d="M.157.787h55.508V60.24H.157z"/>
        <path id="c" d="M.312.524h22.465v24.011H.312z"/>
        <path id="e" d="M0 .892h32.818V36H0z"/>
    </defs>
    <g fill="none" fill-rule="evenodd">
        <g transform="translate(30 7.476)">
            <mask id="b" fill="#fff">
                <use xlink:href="#a"/>
            </mask>
            <path fill="#2F302F" d="M27.861 47.765c-3.26-10.676-11.239-15.284-17.533-17.307 6.294-2.023 14.273-6.631 17.532-17.308 3.26 10.677 11.24 15.284 17.534 17.306C39.1 32.48 31.12 37.088 27.862 47.765M29.32 2.248c0-.787-.676-1.461-1.462-1.461-.787 0-1.462.674-1.462 1.46.003 25.85-22.25 26.75-24.722 26.75-.338 0-.675.113-.9.338-.226.113-.338.337-.45.45a1.666 1.666 0 0 0 0 1.46c.225.45.788.788 1.35.788h.111c2.585-.001 24.726.897 24.727 26.746 0 .787.675 1.462 1.461 1.462a1.489 1.489 0 0 0 1.462-1.462c-.002-25.737 22.14-26.75 24.724-26.75.562 0 1.012-.337 1.348-.786.225-.45.225-1.012-.113-1.461-.224-.45-.786-.675-1.236-.787-2.584 0-24.837-.898-24.838-26.747" mask="url(#b)"/>
        </g>
        <g transform="translate(18 -.524)">
            <mask id="d" fill="#fff">
                <use xlink:href="#c"/>
            </mask>
            <path fill="#2F302F" d="M5.928 12.526c2.23-.923 4.308-2.693 5.539-5.463 1.23 2.923 3.462 4.539 5.539 5.462-2.23.923-4.307 2.693-5.54 5.463-1.23-2.923-3.461-4.54-5.538-5.462m6.54 11.078c-.001-9.694 8.308-10.002 9.23-10.002h.079c.538 0 1-.462 1-1.077 0-.54-.462-1-1-1-.924 0-9.233-.308-9.234-10.001 0-.54-.461-1-1-1-.538 0-1 .46-1 1 0 9.693-8.308 10.002-9.231 10.002h-.077c-.538.077-.923.46-.923 1 0 .539.462 1 1 1 1 0 9.232.308 9.232 10 0 .54.462 1 1 1 .462.078.924-.384.924-.922" mask="url(#d)"/>
        </g>
        <g transform="translate(0 34.477)">
            <mask id="f" fill="#fff">
                <use xlink:href="#e"/>
            </mask>
            <path fill="#395DFF" d="M17.758 34.608c-.001-14.161 12.138-14.611 13.486-14.611h.113c.786 0 1.461-.675 1.461-1.574 0-.787-.675-1.461-1.461-1.461-1.349 0-13.488-.45-13.489-14.61 0-.786-.673-1.46-1.461-1.46-.786 0-1.461.674-1.461 1.46.001 14.162-12.136 14.612-13.485 14.612h-.112C.562 17.076 0 17.638 0 18.424c0 .788.674 1.462 1.461 1.462 1.461 0 13.486.449 13.487 14.61 0 .786.675 1.46 1.461 1.46.675.226 1.349-.45 1.349-1.348" mask="url(#f)"/>
        </g>
    </g>
</svg>
